<?xml version="1.0" encoding="UTF-8"?>
<svg width="18px" height="18px" viewBox="0 0 18 18" version="1.1" xmlns="http://www.w3.org/2000/svg" xmlns:xlink="http://www.w3.org/1999/xlink">
    <!-- Generator: Sketch 51.2 (57519) - http://www.bohemiancoding.com/sketch -->
    <title>settings</title>
    <desc>Created with Sketch.</desc>
    <defs></defs>
    <g id="Page-1" stroke="none" stroke-width="1" fill="none" fill-rule="evenodd">
        <g id="settings" transform="translate(1.000000, 1.000000)" stroke="#9B9B9B">
            <path d="M13.7418435,9.04347822 L15.9999304,9.04347822 L15.9999304,6.95652174 L13.7411478,6.95652174 C13.5957565,6.35339131 13.3578435,5.43965218 13.0434087,4.92382609 L14.640626,3.32695652 L12.672626,1.35930435 L11.0750609,2.95652174 C10.5595826,2.64208696 9.64688693,2.40417391 9.04340871,2.2587826 L9.04340871,0 L6.95645218,0 L6.95645218,2.2587826 C6.35332174,2.40417391 5.4395826,2.64208696 4.92445218,2.95652174 L3.32688696,1.35930435 L1.35888696,3.32695652 L2.95645218,4.92452174 C2.64166956,5.43965218 2.40410435,6.35339131 2.25766956,6.95652174 L-6.95652173e-05,6.95652174 L-6.95652173e-05,9.04347822 L2.25766956,9.04347822 C2.40410435,9.64660871 2.64166956,10.5603478 2.95645218,11.0754782 L1.35853913,12.6730435 L3.32688696,14.6406956 L4.92375652,13.0427826 C5.4395826,13.3579131 6.35332174,13.595826 6.95645218,13.7419131 L6.95645218,16 L9.04340871,16 L9.04340871,13.7419131 C9.64688693,13.595826 10.5602782,13.3579131 11.0750609,13.0434782 L12.6733218,14.6406956 L14.640626,12.6730435 L13.0434087,11.0754782 C13.3578435,10.5603478 13.5957565,9.64660871 13.7418435,9.04347822 Z" id="Stroke-3819"></path>
            <path d="M11.1304348,8 C11.1304348,9.72904347 9.72904347,11.1304348 8,11.1304348 C6.27095652,11.1304348 4.86956522,9.72904347 4.86956522,8 C4.86956522,6.27095652 6.27095652,4.86956522 8,4.86956522 C9.72904347,4.86956522 11.1304348,6.27095652 11.1304348,8 Z" id="Stroke-3820"></path>
        </g>
    </g>
</svg>