<?xml version="1.0" encoding="UTF-8"?>
<svg width="16px" height="16px" viewBox="0 0 16 16" version="1.1" xmlns="http://www.w3.org/2000/svg" xmlns:xlink="http://www.w3.org/1999/xlink">
    <!-- Generator: Sketch 51.2 (57519) - http://www.bohemiancoding.com/sketch -->
    <title>Icon - settings</title>
    <desc>Created with Sketch.</desc>
    <defs></defs>
    <g id="V2" stroke="none" stroke-width="1" fill="none" fill-rule="evenodd" stroke-linecap="round" stroke-linejoin="round">
        <g id="Dashboard---v2" transform="translate(-829.000000, -21.000000)" stroke="#9B9B9B">
            <g id="Header---branding-+-main-actions">
                <g id="Site-avatar-+-name" transform="translate(597.000000, 21.000000)">
                    <g id="Icon---settings" transform="translate(233.000000, 1.000000)">
                        <path d="M12.024113,7.91304348 L13.9999391,7.91304348 L13.9999391,6.08695652 L12.0235043,6.08695652 C11.896287,5.55921739 11.688113,4.75969565 11.4129826,4.30834783 L12.8105478,2.91108696 L11.0885478,1.1893913 L9.69067826,2.58695652 C9.23963478,2.31182609 8.44102609,2.10365217 7.91298261,1.97643478 L7.91298261,0 L6.08689565,0 L6.08689565,1.97643478 C5.55915652,2.10365217 4.75963478,2.31182609 4.30889565,2.58695652 L2.91102609,1.1893913 L1.18902609,2.91108696 L2.58689565,4.30895652 C2.31146087,4.75969565 2.1035913,5.55921739 1.97546087,6.08695652 L-6.08695652e-05,6.08695652 L-6.08695652e-05,7.91304348 L1.97546087,7.91304348 C2.1035913,8.44078261 2.31146087,9.24030435 2.58689565,9.69104348 L1.18872174,11.088913 L2.91102609,12.8106087 L4.30828696,11.4124348 C4.75963478,11.6881739 5.55915652,11.8963478 6.08689565,12.0241739 L6.08689565,14 L7.91298261,14 L7.91298261,12.0241739 C8.44102609,11.8963478 9.24024348,11.6881739 9.69067826,11.4130435 L11.0891565,12.8106087 L12.8105478,11.088913 L11.4129826,9.69104348 C11.688113,9.24030435 11.896287,8.44078261 12.024113,7.91304348 L12.024113,7.91304348 Z" id="Stroke-3819"></path>
                        <path d="M9.73913043,7 C9.73913043,8.51291304 8.51291304,9.73913043 7,9.73913043 C5.48708696,9.73913043 4.26086957,8.51291304 4.26086957,7 C4.26086957,5.48708696 5.48708696,4.26086957 7,4.26086957 C8.51291304,4.26086957 9.73913043,5.48708696 9.73913043,7 L9.73913043,7 Z" id="Stroke-3820"></path>
                    </g>
                </g>
            </g>
        </g>
    </g>
</svg>